<svg xmlns="http://www.w3.org/2000/svg" width="1600" height="500" viewBox="0 0 1600 500" role="img" aria-labelledby="title desc">
  <title id="title">skill-install-workflow</title>
  <desc id="desc">Govern AI Skills before they govern your agents.</desc>
  <defs>
    <linearGradient id="bg" x1="0" y1="0" x2="1" y2="1">
      <stop offset="0%" stop-color="#221A4A"/>
      <stop offset="55%" stop-color="#5B4BDB"/>
      <stop offset="100%" stop-color="#8B7CF6"/>
    </linearGradient>
    <filter id="shadow" x="-20%" y="-20%" width="140%" height="140%">
      <feDropShadow dx="0" dy="10" stdDeviation="18" flood-color="#120C2B" flood-opacity="0.35"/>
    </filter>
  </defs>
  <rect width="1600" height="500" rx="36" fill="url(#bg)"/>
  <circle cx="1325" cy="80" r="220" fill="#FFFFFF" opacity="0.055"/>
  <circle cx="1435" cy="410" r="290" fill="#FFFFFF" opacity="0.045"/>
  <g opacity="0.9" stroke="#D9D4FF" stroke-width="5" fill="none">
    <path d="M1080 155 L1235 105 L1380 170 L1295 300 L1115 310 Z"/>
    <path d="M1080 155 L1115 310 M1235 105 L1295 300 M1380 170 L1115 310" opacity="0.65"/>
  </g>
  <g filter="url(#shadow)">
    <circle cx="1080" cy="155" r="24" fill="#FFFFFF"/>
    <circle cx="1235" cy="105" r="24" fill="#FFFFFF"/>
    <circle cx="1380" cy="170" r="24" fill="#FFFFFF"/>
    <circle cx="1295" cy="300" r="24" fill="#FFFFFF"/>
    <circle cx="1115" cy="310" r="24" fill="#FFFFFF"/>
  </g>
  <g font-family="Inter, Segoe UI, Arial, sans-serif" fill="#FFFFFF">
    <text x="120" y="195" font-size="68" font-weight="750">skill-install-workflow</text>
    <text x="122" y="260" font-size="31" font-weight="500" opacity="0.92">Govern AI Skills before they govern your agents.</text>
    <text x="122" y="330" font-size="24" opacity="0.78">LLM decisions · canonical source · provenance · validation</text>
  </g>
  <g transform="translate(120 380)" font-family="Inter, Segoe UI, Arial, sans-serif" font-size="20" font-weight="600">
    <rect width="154" height="48" rx="24" fill="#FFFFFF" opacity="0.15"/>
    <text x="77" y="31" text-anchor="middle" fill="#FFFFFF">AI Agent Skill</text>
    <rect x="170" width="142" height="48" rx="24" fill="#FFFFFF" opacity="0.15"/>
    <text x="241" y="31" text-anchor="middle" fill="#FFFFFF">Lifecycle</text>
    <rect x="328" width="154" height="48" rx="24" fill="#FFFFFF" opacity="0.15"/>
    <text x="405" y="31" text-anchor="middle" fill="#FFFFFF">Reproducible</text>
  </g>
</svg>